# xmcd CD database file
#
# Track frame offsets:
#	150
#	15411
#	35333
#	51769
#	68038
#	78854
#	87216
#	100322
#	114002
#	128614
#	138836
#	154598
#	169262
#
# Disc length: 2515 seconds
#
# Revision: 1
# Processed by: cddbd v1.5.2PL0 Copyright (c) Steve Scherf et al.
# Submitted via: CDex 2.07
#
DISCID=8f09d10d
DTITLE=Thirsty Cowboys - Unknown CD for MusicBrainz and FreeDB
DYEAR=1996
DGENRE=Country
TTITLE0=Thirsty Cowboys
TTITLE1=All you ever do
TTITLE2=Next beer ten miles
TTITLE3=Un Cerveza
TTITLE4=Tall, tall trees
TTITLE5=St. Anne's Reel
TTITLE6=Streets of Bakersfield
TTITLE7=Volver
TTITLE8=Hillbilly Rock
TTITLE9=Sold
TTITLE10=Adios Mexico
TTITLE11=La Mucura
TTITLE12=Here we are again
EXTD=
EXTT0=
EXTT1=
EXTT2=
EXTT3=
EXTT4=
EXTT5=
EXTT6=
EXTT7=
EXTT8=
EXTT9=
EXTT10=
EXTT11=
EXTT12=
PLAYORDER=
